G75*
%MOIN*%
%OFA0B0*%
%FSLAX25Y25*%
%IPPOS*%
%LPD*%
%AMOC8*
5,1,8,0,0,1.08239X$1,22.5*
%
%ADD10C,0.00000*%
%ADD11C,0.00600*%
%ADD12C,0.00500*%
%ADD13C,0.01600*%
%ADD14R,0.03400X0.02400*%
%ADD15C,0.00200*%
%ADD16C,0.00700*%
%ADD17C,0.00300*%
%ADD18C,0.00800*%
D10*
X0001800Y0001800D02*
X0001800Y0130501D01*
X0176721Y0130501D01*
X0176721Y0001800D01*
X0001800Y0001800D01*
D11*
X0007100Y0007100D02*
X0007100Y0013505D01*
X0010303Y0013505D01*
X0011370Y0012438D01*
X0011370Y0010303D01*
X0010303Y0009235D01*
X0007100Y0009235D01*
X0009235Y0009235D02*
X0011370Y0007100D01*
X0013545Y0008168D02*
X0013545Y0010303D01*
X0014613Y0011370D01*
X0016748Y0011370D01*
X0017816Y0010303D01*
X0017816Y0009235D01*
X0013545Y0009235D01*
X0013545Y0008168D02*
X0014613Y0007100D01*
X0016748Y0007100D01*
X0019991Y0011370D02*
X0022126Y0007100D01*
X0024261Y0011370D01*
X0026436Y0008168D02*
X0027504Y0008168D01*
X0027504Y0007100D01*
X0026436Y0007100D01*
X0026436Y0008168D01*
X0036105Y0008168D02*
X0040375Y0012438D01*
X0040375Y0008168D01*
X0039307Y0007100D01*
X0037172Y0007100D01*
X0036105Y0008168D01*
X0036105Y0012438D01*
X0037172Y0013505D01*
X0039307Y0013505D01*
X0040375Y0012438D01*
X0042550Y0011370D02*
X0044685Y0013505D01*
X0044685Y0007100D01*
X0042550Y0007100D02*
X0046821Y0007100D01*
X0054235Y0012100D02*
X0054235Y0018505D01*
X0052100Y0018505D02*
X0056370Y0018505D01*
X0058545Y0015303D02*
X0059613Y0016370D01*
X0061748Y0016370D01*
X0062816Y0015303D01*
X0062816Y0013168D01*
X0061748Y0012100D01*
X0059613Y0012100D01*
X0058545Y0013168D01*
X0058545Y0015303D01*
X0064991Y0016370D02*
X0068194Y0016370D01*
X0069261Y0015303D01*
X0069261Y0013168D01*
X0068194Y0012100D01*
X0064991Y0012100D01*
X0064991Y0018505D01*
X0071436Y0016370D02*
X0072504Y0016370D01*
X0072504Y0012100D01*
X0071436Y0012100D02*
X0073572Y0012100D01*
X0075733Y0013168D02*
X0076801Y0014235D01*
X0080004Y0014235D01*
X0080004Y0015303D02*
X0080004Y0012100D01*
X0076801Y0012100D01*
X0075733Y0013168D01*
X0076801Y0016370D02*
X0078936Y0016370D01*
X0080004Y0015303D01*
X0082179Y0015303D02*
X0083247Y0016370D01*
X0086449Y0016370D01*
X0085382Y0014235D02*
X0083247Y0014235D01*
X0082179Y0015303D01*
X0085382Y0014235D02*
X0086449Y0013168D01*
X0085382Y0012100D01*
X0082179Y0012100D01*
X0072504Y0018505D02*
X0072504Y0019573D01*
X0071800Y0024300D02*
X0071800Y0024800D01*
X0066800Y0024800D01*
X0066800Y0024300D01*
X0051800Y0024300D01*
X0051800Y0059300D01*
X0056800Y0059300D01*
X0056800Y0060300D01*
X0061800Y0060300D01*
X0061800Y0059300D01*
X0079300Y0059300D01*
X0079300Y0060300D01*
X0084300Y0060300D01*
X0084300Y0059300D01*
X0101800Y0059300D01*
X0101800Y0060300D01*
X0106800Y0060300D01*
X0106800Y0059300D01*
X0111800Y0059300D01*
X0111800Y0024300D01*
X0089800Y0024300D01*
X0089800Y0028300D01*
X0089800Y0029300D01*
X0106800Y0029300D01*
X0106800Y0054300D01*
X0056800Y0054300D01*
X0056800Y0029300D01*
X0073800Y0029300D01*
X0073800Y0028300D01*
X0073800Y0024300D01*
X0071800Y0024300D01*
X0073800Y0024300D02*
X0089800Y0024300D01*
X0089800Y0029300D02*
X0089800Y0032300D01*
X0073800Y0032300D01*
X0073800Y0029300D01*
X0095070Y0018505D02*
X0095070Y0012100D01*
X0099340Y0012100D02*
X0099340Y0018505D01*
X0097205Y0016370D01*
X0095070Y0018505D01*
X0102583Y0018505D02*
X0102583Y0019573D01*
X0104718Y0019573D02*
X0104718Y0018505D01*
X0104718Y0016370D02*
X0102583Y0016370D01*
X0102583Y0014235D02*
X0105786Y0014235D01*
X0105786Y0015303D02*
X0105786Y0012100D01*
X0102583Y0012100D01*
X0101515Y0013168D01*
X0102583Y0014235D01*
X0104718Y0016370D02*
X0105786Y0015303D01*
X0107961Y0015303D02*
X0107961Y0013168D01*
X0109029Y0012100D01*
X0112231Y0012100D01*
X0112231Y0018505D01*
X0112231Y0016370D02*
X0109029Y0016370D01*
X0107961Y0015303D01*
X0114406Y0015303D02*
X0114406Y0013168D01*
X0115474Y0012100D01*
X0117609Y0012100D01*
X0118677Y0014235D02*
X0114406Y0014235D01*
X0114406Y0015303D02*
X0115474Y0016370D01*
X0117609Y0016370D01*
X0118677Y0015303D01*
X0118677Y0014235D01*
X0120852Y0012100D02*
X0122987Y0012100D01*
X0121920Y0012100D02*
X0121920Y0018505D01*
X0120852Y0018505D01*
X0137099Y0007158D02*
X0137898Y0007158D01*
X0137898Y0046457D01*
X0163898Y0046457D01*
X0173300Y0046457D01*
X0173300Y0007158D01*
X0163898Y0007158D01*
X0137898Y0007158D01*
X0137099Y0007158D02*
X0137099Y0046457D01*
X0137898Y0046457D01*
X0137898Y0047158D02*
X0137099Y0047158D01*
X0137099Y0086457D01*
X0137898Y0086457D01*
X0163898Y0086457D01*
X0173300Y0086457D01*
X0173300Y0047158D01*
X0163898Y0047158D01*
X0137898Y0047158D01*
X0137898Y0086457D01*
X0137898Y0087158D02*
X0137099Y0087158D01*
X0137099Y0126457D01*
X0137898Y0126457D01*
X0163898Y0126457D01*
X0173300Y0126457D01*
X0173300Y0087158D01*
X0163898Y0087158D01*
X0137898Y0087158D01*
X0137898Y0126457D01*
X0141100Y0116657D02*
X0141102Y0116746D01*
X0141108Y0116835D01*
X0141118Y0116924D01*
X0141132Y0117012D01*
X0141149Y0117099D01*
X0141171Y0117185D01*
X0141197Y0117271D01*
X0141226Y0117355D01*
X0141259Y0117438D01*
X0141295Y0117519D01*
X0141336Y0117599D01*
X0141379Y0117676D01*
X0141426Y0117752D01*
X0141477Y0117825D01*
X0141530Y0117896D01*
X0141587Y0117965D01*
X0141647Y0118031D01*
X0141710Y0118095D01*
X0141775Y0118155D01*
X0141843Y0118213D01*
X0141914Y0118267D01*
X0141987Y0118318D01*
X0142062Y0118366D01*
X0142139Y0118411D01*
X0142218Y0118452D01*
X0142299Y0118489D01*
X0142381Y0118523D01*
X0142465Y0118554D01*
X0142550Y0118580D01*
X0142636Y0118603D01*
X0142723Y0118621D01*
X0142811Y0118636D01*
X0142900Y0118647D01*
X0142989Y0118654D01*
X0143078Y0118657D01*
X0143167Y0118656D01*
X0143256Y0118651D01*
X0143344Y0118642D01*
X0143433Y0118629D01*
X0143520Y0118612D01*
X0143607Y0118592D01*
X0143693Y0118567D01*
X0143777Y0118539D01*
X0143860Y0118507D01*
X0143942Y0118471D01*
X0144022Y0118432D01*
X0144100Y0118389D01*
X0144176Y0118343D01*
X0144250Y0118293D01*
X0144322Y0118240D01*
X0144391Y0118184D01*
X0144458Y0118125D01*
X0144522Y0118063D01*
X0144583Y0117999D01*
X0144642Y0117931D01*
X0144697Y0117861D01*
X0144749Y0117789D01*
X0144798Y0117714D01*
X0144843Y0117638D01*
X0144885Y0117559D01*
X0144923Y0117479D01*
X0144958Y0117397D01*
X0144989Y0117313D01*
X0145017Y0117228D01*
X0145040Y0117142D01*
X0145060Y0117055D01*
X0145076Y0116968D01*
X0145088Y0116879D01*
X0145096Y0116791D01*
X0145100Y0116702D01*
X0145100Y0116612D01*
X0145096Y0116523D01*
X0145088Y0116435D01*
X0145076Y0116346D01*
X0145060Y0116259D01*
X0145040Y0116172D01*
X0145017Y0116086D01*
X0144989Y0116001D01*
X0144958Y0115917D01*
X0144923Y0115835D01*
X0144885Y0115755D01*
X0144843Y0115676D01*
X0144798Y0115600D01*
X0144749Y0115525D01*
X0144697Y0115453D01*
X0144642Y0115383D01*
X0144583Y0115315D01*
X0144522Y0115251D01*
X0144458Y0115189D01*
X0144391Y0115130D01*
X0144322Y0115074D01*
X0144250Y0115021D01*
X0144176Y0114971D01*
X0144100Y0114925D01*
X0144022Y0114882D01*
X0143942Y0114843D01*
X0143860Y0114807D01*
X0143777Y0114775D01*
X0143693Y0114747D01*
X0143607Y0114722D01*
X0143520Y0114702D01*
X0143433Y0114685D01*
X0143344Y0114672D01*
X0143256Y0114663D01*
X0143167Y0114658D01*
X0143078Y0114657D01*
X0142989Y0114660D01*
X0142900Y0114667D01*
X0142811Y0114678D01*
X0142723Y0114693D01*
X0142636Y0114711D01*
X0142550Y0114734D01*
X0142465Y0114760D01*
X0142381Y0114791D01*
X0142299Y0114825D01*
X0142218Y0114862D01*
X0142139Y0114903D01*
X0142062Y0114948D01*
X0141987Y0114996D01*
X0141914Y0115047D01*
X0141843Y0115101D01*
X0141775Y0115159D01*
X0141710Y0115219D01*
X0141647Y0115283D01*
X0141587Y0115349D01*
X0141530Y0115418D01*
X0141477Y0115489D01*
X0141426Y0115562D01*
X0141379Y0115638D01*
X0141336Y0115715D01*
X0141295Y0115795D01*
X0141259Y0115876D01*
X0141226Y0115959D01*
X0141197Y0116043D01*
X0141171Y0116129D01*
X0141149Y0116215D01*
X0141132Y0116302D01*
X0141118Y0116390D01*
X0141108Y0116479D01*
X0141102Y0116568D01*
X0141100Y0116657D01*
X0127800Y0105800D02*
X0127800Y0067800D01*
X0127798Y0067740D01*
X0127793Y0067679D01*
X0127784Y0067620D01*
X0127771Y0067561D01*
X0127755Y0067502D01*
X0127735Y0067445D01*
X0127712Y0067390D01*
X0127685Y0067335D01*
X0127656Y0067283D01*
X0127623Y0067232D01*
X0127587Y0067183D01*
X0127549Y0067137D01*
X0127507Y0067093D01*
X0127463Y0067051D01*
X0127417Y0067013D01*
X0127368Y0066977D01*
X0127317Y0066944D01*
X0127265Y0066915D01*
X0127210Y0066888D01*
X0127155Y0066865D01*
X0127098Y0066845D01*
X0127039Y0066829D01*
X0126980Y0066816D01*
X0126921Y0066807D01*
X0126860Y0066802D01*
X0126800Y0066800D01*
X0116800Y0066800D01*
X0116740Y0066802D01*
X0116679Y0066807D01*
X0116620Y0066816D01*
X0116561Y0066829D01*
X0116502Y0066845D01*
X0116445Y0066865D01*
X0116390Y0066888D01*
X0116335Y0066915D01*
X0116283Y0066944D01*
X0116232Y0066977D01*
X0116183Y0067013D01*
X0116137Y0067051D01*
X0116093Y0067093D01*
X0116051Y0067137D01*
X0116013Y0067183D01*
X0115977Y0067232D01*
X0115944Y0067283D01*
X0115915Y0067335D01*
X0115888Y0067390D01*
X0115865Y0067445D01*
X0115845Y0067502D01*
X0115829Y0067561D01*
X0115816Y0067620D01*
X0115807Y0067679D01*
X0115802Y0067740D01*
X0115800Y0067800D01*
X0115800Y0105800D01*
X0115802Y0105860D01*
X0115807Y0105921D01*
X0115816Y0105980D01*
X0115829Y0106039D01*
X0115845Y0106098D01*
X0115865Y0106155D01*
X0115888Y0106210D01*
X0115915Y0106265D01*
X0115944Y0106317D01*
X0115977Y0106368D01*
X0116013Y0106417D01*
X0116051Y0106463D01*
X0116093Y0106507D01*
X0116137Y0106549D01*
X0116183Y0106587D01*
X0116232Y0106623D01*
X0116283Y0106656D01*
X0116335Y0106685D01*
X0116390Y0106712D01*
X0116445Y0106735D01*
X0116502Y0106755D01*
X0116561Y0106771D01*
X0116620Y0106784D01*
X0116679Y0106793D01*
X0116740Y0106798D01*
X0116800Y0106800D01*
X0126800Y0106800D01*
X0126860Y0106798D01*
X0126921Y0106793D01*
X0126980Y0106784D01*
X0127039Y0106771D01*
X0127098Y0106755D01*
X0127155Y0106735D01*
X0127210Y0106712D01*
X0127265Y0106685D01*
X0127317Y0106656D01*
X0127368Y0106623D01*
X0127417Y0106587D01*
X0127463Y0106549D01*
X0127507Y0106507D01*
X0127549Y0106463D01*
X0127587Y0106417D01*
X0127623Y0106368D01*
X0127656Y0106317D01*
X0127685Y0106265D01*
X0127712Y0106210D01*
X0127735Y0106155D01*
X0127755Y0106098D01*
X0127771Y0106039D01*
X0127784Y0105980D01*
X0127793Y0105921D01*
X0127798Y0105860D01*
X0127800Y0105800D01*
X0121800Y0096800D02*
X0121800Y0088800D01*
X0121800Y0084800D02*
X0121800Y0076800D01*
X0102800Y0067800D02*
X0102800Y0105800D01*
X0102798Y0105860D01*
X0102793Y0105921D01*
X0102784Y0105980D01*
X0102771Y0106039D01*
X0102755Y0106098D01*
X0102735Y0106155D01*
X0102712Y0106210D01*
X0102685Y0106265D01*
X0102656Y0106317D01*
X0102623Y0106368D01*
X0102587Y0106417D01*
X0102549Y0106463D01*
X0102507Y0106507D01*
X0102463Y0106549D01*
X0102417Y0106587D01*
X0102368Y0106623D01*
X0102317Y0106656D01*
X0102265Y0106685D01*
X0102210Y0106712D01*
X0102155Y0106735D01*
X0102098Y0106755D01*
X0102039Y0106771D01*
X0101980Y0106784D01*
X0101921Y0106793D01*
X0101860Y0106798D01*
X0101800Y0106800D01*
X0091800Y0106800D01*
X0091740Y0106798D01*
X0091679Y0106793D01*
X0091620Y0106784D01*
X0091561Y0106771D01*
X0091502Y0106755D01*
X0091445Y0106735D01*
X0091390Y0106712D01*
X0091335Y0106685D01*
X0091283Y0106656D01*
X0091232Y0106623D01*
X0091183Y0106587D01*
X0091137Y0106549D01*
X0091093Y0106507D01*
X0091051Y0106463D01*
X0091013Y0106417D01*
X0090977Y0106368D01*
X0090944Y0106317D01*
X0090915Y0106265D01*
X0090888Y0106210D01*
X0090865Y0106155D01*
X0090845Y0106098D01*
X0090829Y0106039D01*
X0090816Y0105980D01*
X0090807Y0105921D01*
X0090802Y0105860D01*
X0090800Y0105800D01*
X0090800Y0067800D01*
X0090802Y0067740D01*
X0090807Y0067679D01*
X0090816Y0067620D01*
X0090829Y0067561D01*
X0090845Y0067502D01*
X0090865Y0067445D01*
X0090888Y0067390D01*
X0090915Y0067335D01*
X0090944Y0067283D01*
X0090977Y0067232D01*
X0091013Y0067183D01*
X0091051Y0067137D01*
X0091093Y0067093D01*
X0091137Y0067051D01*
X0091183Y0067013D01*
X0091232Y0066977D01*
X0091283Y0066944D01*
X0091335Y0066915D01*
X0091390Y0066888D01*
X0091445Y0066865D01*
X0091502Y0066845D01*
X0091561Y0066829D01*
X0091620Y0066816D01*
X0091679Y0066807D01*
X0091740Y0066802D01*
X0091800Y0066800D01*
X0101800Y0066800D01*
X0101860Y0066802D01*
X0101921Y0066807D01*
X0101980Y0066816D01*
X0102039Y0066829D01*
X0102098Y0066845D01*
X0102155Y0066865D01*
X0102210Y0066888D01*
X0102265Y0066915D01*
X0102317Y0066944D01*
X0102368Y0066977D01*
X0102417Y0067013D01*
X0102463Y0067051D01*
X0102507Y0067093D01*
X0102549Y0067137D01*
X0102587Y0067183D01*
X0102623Y0067232D01*
X0102656Y0067283D01*
X0102685Y0067335D01*
X0102712Y0067390D01*
X0102735Y0067445D01*
X0102755Y0067502D01*
X0102771Y0067561D01*
X0102784Y0067620D01*
X0102793Y0067679D01*
X0102798Y0067740D01*
X0102800Y0067800D01*
X0096800Y0076800D02*
X0096800Y0084800D01*
X0096800Y0088800D02*
X0096800Y0096800D01*
X0091800Y0112300D02*
X0090300Y0112300D01*
X0090240Y0112302D01*
X0090179Y0112307D01*
X0090120Y0112316D01*
X0090061Y0112329D01*
X0090002Y0112345D01*
X0089945Y0112365D01*
X0089890Y0112388D01*
X0089835Y0112415D01*
X0089783Y0112444D01*
X0089732Y0112477D01*
X0089683Y0112513D01*
X0089637Y0112551D01*
X0089593Y0112593D01*
X0089551Y0112637D01*
X0089513Y0112683D01*
X0089477Y0112732D01*
X0089444Y0112783D01*
X0089415Y0112835D01*
X0089388Y0112890D01*
X0089365Y0112945D01*
X0089345Y0113002D01*
X0089329Y0113061D01*
X0089316Y0113120D01*
X0089307Y0113179D01*
X0089302Y0113240D01*
X0089300Y0113300D01*
X0089300Y0120300D01*
X0089302Y0120360D01*
X0089307Y0120421D01*
X0089316Y0120480D01*
X0089329Y0120539D01*
X0089345Y0120598D01*
X0089365Y0120655D01*
X0089388Y0120710D01*
X0089415Y0120765D01*
X0089444Y0120817D01*
X0089477Y0120868D01*
X0089513Y0120917D01*
X0089551Y0120963D01*
X0089593Y0121007D01*
X0089637Y0121049D01*
X0089683Y0121087D01*
X0089732Y0121123D01*
X0089783Y0121156D01*
X0089835Y0121185D01*
X0089890Y0121212D01*
X0089945Y0121235D01*
X0090002Y0121255D01*
X0090061Y0121271D01*
X0090120Y0121284D01*
X0090179Y0121293D01*
X0090240Y0121298D01*
X0090300Y0121300D01*
X0091800Y0121300D01*
X0092300Y0120800D01*
X0111300Y0120800D01*
X0111800Y0121300D01*
X0113300Y0121300D01*
X0113360Y0121298D01*
X0113421Y0121293D01*
X0113480Y0121284D01*
X0113539Y0121271D01*
X0113598Y0121255D01*
X0113655Y0121235D01*
X0113710Y0121212D01*
X0113765Y0121185D01*
X0113817Y0121156D01*
X0113868Y0121123D01*
X0113917Y0121087D01*
X0113963Y0121049D01*
X0114007Y0121007D01*
X0114049Y0120963D01*
X0114087Y0120917D01*
X0114123Y0120868D01*
X0114156Y0120817D01*
X0114185Y0120765D01*
X0114212Y0120710D01*
X0114235Y0120655D01*
X0114255Y0120598D01*
X0114271Y0120539D01*
X0114284Y0120480D01*
X0114293Y0120421D01*
X0114298Y0120360D01*
X0114300Y0120300D01*
X0114300Y0113300D01*
X0114298Y0113240D01*
X0114293Y0113179D01*
X0114284Y0113120D01*
X0114271Y0113061D01*
X0114255Y0113002D01*
X0114235Y0112945D01*
X0114212Y0112890D01*
X0114185Y0112835D01*
X0114156Y0112783D01*
X0114123Y0112732D01*
X0114087Y0112683D01*
X0114049Y0112637D01*
X0114007Y0112593D01*
X0113963Y0112551D01*
X0113917Y0112513D01*
X0113868Y0112477D01*
X0113817Y0112444D01*
X0113765Y0112415D01*
X0113710Y0112388D01*
X0113655Y0112365D01*
X0113598Y0112345D01*
X0113539Y0112329D01*
X0113480Y0112316D01*
X0113421Y0112307D01*
X0113360Y0112302D01*
X0113300Y0112300D01*
X0111800Y0112300D01*
X0111300Y0112800D01*
X0092300Y0112800D01*
X0091800Y0112300D01*
X0070500Y0121800D02*
X0058000Y0121800D01*
X0055600Y0121800D01*
X0046300Y0121800D01*
X0055600Y0121800D02*
X0055602Y0121731D01*
X0055608Y0121663D01*
X0055618Y0121595D01*
X0055631Y0121528D01*
X0055649Y0121462D01*
X0055670Y0121397D01*
X0055695Y0121333D01*
X0055723Y0121271D01*
X0055755Y0121210D01*
X0055790Y0121151D01*
X0055829Y0121095D01*
X0055871Y0121040D01*
X0055916Y0120989D01*
X0055964Y0120939D01*
X0056014Y0120893D01*
X0056067Y0120850D01*
X0056123Y0120809D01*
X0056180Y0120772D01*
X0056240Y0120739D01*
X0056302Y0120708D01*
X0056365Y0120682D01*
X0056429Y0120659D01*
X0056495Y0120639D01*
X0056562Y0120624D01*
X0056629Y0120612D01*
X0056697Y0120604D01*
X0056766Y0120600D01*
X0056834Y0120600D01*
X0056903Y0120604D01*
X0056971Y0120612D01*
X0057038Y0120624D01*
X0057105Y0120639D01*
X0057171Y0120659D01*
X0057235Y0120682D01*
X0057298Y0120708D01*
X0057360Y0120739D01*
X0057420Y0120772D01*
X0057477Y0120809D01*
X0057533Y0120850D01*
X0057586Y0120893D01*
X0057636Y0120939D01*
X0057684Y0120989D01*
X0057729Y0121040D01*
X0057771Y0121095D01*
X0057810Y0121151D01*
X0057845Y0121210D01*
X0057877Y0121271D01*
X0057905Y0121333D01*
X0057930Y0121397D01*
X0057951Y0121462D01*
X0057969Y0121528D01*
X0057982Y0121595D01*
X0057992Y0121663D01*
X0057998Y0121731D01*
X0058000Y0121800D01*
X0026800Y0089300D02*
X0024300Y0091800D01*
X0019300Y0091800D01*
X0016800Y0089300D01*
X0016800Y0084300D01*
X0019300Y0081800D01*
X0024300Y0081800D01*
X0026800Y0084300D01*
X0026800Y0089300D01*
X0016800Y0089300D02*
X0014300Y0091800D01*
X0009300Y0091800D01*
X0006800Y0089300D01*
X0006800Y0084300D01*
X0009300Y0081800D01*
X0014300Y0081800D01*
X0016800Y0084300D01*
X0014300Y0101800D02*
X0009300Y0101800D01*
X0006800Y0104300D01*
X0006800Y0109300D01*
X0009300Y0111800D01*
X0014300Y0111800D01*
X0016800Y0109300D01*
X0016800Y0104300D01*
X0014300Y0101800D01*
X0043100Y0081800D02*
X0070500Y0081800D01*
X0026800Y0059300D02*
X0026800Y0054300D01*
X0024300Y0051800D01*
X0019300Y0051800D01*
X0016800Y0054300D01*
X0014300Y0051800D01*
X0009300Y0051800D01*
X0006800Y0054300D01*
X0006800Y0059300D01*
X0009300Y0061800D01*
X0014300Y0061800D01*
X0016800Y0059300D01*
X0019300Y0061800D01*
X0024300Y0061800D01*
X0026800Y0059300D01*
X0016800Y0059300D02*
X0016800Y0054300D01*
X0014300Y0041800D02*
X0009300Y0041800D01*
X0006800Y0039300D01*
X0006800Y0034300D01*
X0009300Y0031800D01*
X0014300Y0031800D01*
X0016800Y0034300D01*
X0019300Y0031800D01*
X0024300Y0031800D01*
X0026800Y0034300D01*
X0026800Y0039300D01*
X0024300Y0041800D01*
X0019300Y0041800D01*
X0016800Y0039300D01*
X0016800Y0034300D01*
X0016800Y0039300D02*
X0014300Y0041800D01*
X0036098Y0024573D02*
X0036098Y0023505D01*
X0036098Y0021370D02*
X0035030Y0021370D01*
X0036098Y0021370D02*
X0036098Y0017100D01*
X0035030Y0017100D02*
X0037166Y0017100D01*
X0039327Y0017100D02*
X0042530Y0017100D01*
X0043598Y0018168D01*
X0043598Y0020303D01*
X0042530Y0021370D01*
X0039327Y0021370D01*
X0039327Y0014965D01*
X0032869Y0017100D02*
X0030733Y0017100D01*
X0031801Y0017100D02*
X0031801Y0023505D01*
X0030733Y0023505D01*
X0028558Y0023505D02*
X0024288Y0023505D01*
X0024288Y0017100D01*
X0022113Y0017100D02*
X0017842Y0021370D01*
X0015681Y0021370D02*
X0013545Y0021370D01*
X0014613Y0022438D02*
X0014613Y0018168D01*
X0015681Y0017100D01*
X0017842Y0017100D02*
X0022113Y0021370D01*
X0024288Y0020303D02*
X0026423Y0020303D01*
X0011370Y0020303D02*
X0011370Y0017100D01*
X0008168Y0017100D01*
X0007100Y0018168D01*
X0008168Y0019235D01*
X0011370Y0019235D01*
X0011370Y0020303D02*
X0010303Y0021370D01*
X0008168Y0021370D01*
X0141100Y0016957D02*
X0141102Y0017046D01*
X0141108Y0017135D01*
X0141118Y0017224D01*
X0141132Y0017312D01*
X0141149Y0017399D01*
X0141171Y0017485D01*
X0141197Y0017571D01*
X0141226Y0017655D01*
X0141259Y0017738D01*
X0141295Y0017819D01*
X0141336Y0017899D01*
X0141379Y0017976D01*
X0141426Y0018052D01*
X0141477Y0018125D01*
X0141530Y0018196D01*
X0141587Y0018265D01*
X0141647Y0018331D01*
X0141710Y0018395D01*
X0141775Y0018455D01*
X0141843Y0018513D01*
X0141914Y0018567D01*
X0141987Y0018618D01*
X0142062Y0018666D01*
X0142139Y0018711D01*
X0142218Y0018752D01*
X0142299Y0018789D01*
X0142381Y0018823D01*
X0142465Y0018854D01*
X0142550Y0018880D01*
X0142636Y0018903D01*
X0142723Y0018921D01*
X0142811Y0018936D01*
X0142900Y0018947D01*
X0142989Y0018954D01*
X0143078Y0018957D01*
X0143167Y0018956D01*
X0143256Y0018951D01*
X0143344Y0018942D01*
X0143433Y0018929D01*
X0143520Y0018912D01*
X0143607Y0018892D01*
X0143693Y0018867D01*
X0143777Y0018839D01*
X0143860Y0018807D01*
X0143942Y0018771D01*
X0144022Y0018732D01*
X0144100Y0018689D01*
X0144176Y0018643D01*
X0144250Y0018593D01*
X0144322Y0018540D01*
X0144391Y0018484D01*
X0144458Y0018425D01*
X0144522Y0018363D01*
X0144583Y0018299D01*
X0144642Y0018231D01*
X0144697Y0018161D01*
X0144749Y0018089D01*
X0144798Y0018014D01*
X0144843Y0017938D01*
X0144885Y0017859D01*
X0144923Y0017779D01*
X0144958Y0017697D01*
X0144989Y0017613D01*
X0145017Y0017528D01*
X0145040Y0017442D01*
X0145060Y0017355D01*
X0145076Y0017268D01*
X0145088Y0017179D01*
X0145096Y0017091D01*
X0145100Y0017002D01*
X0145100Y0016912D01*
X0145096Y0016823D01*
X0145088Y0016735D01*
X0145076Y0016646D01*
X0145060Y0016559D01*
X0145040Y0016472D01*
X0145017Y0016386D01*
X0144989Y0016301D01*
X0144958Y0016217D01*
X0144923Y0016135D01*
X0144885Y0016055D01*
X0144843Y0015976D01*
X0144798Y0015900D01*
X0144749Y0015825D01*
X0144697Y0015753D01*
X0144642Y0015683D01*
X0144583Y0015615D01*
X0144522Y0015551D01*
X0144458Y0015489D01*
X0144391Y0015430D01*
X0144322Y0015374D01*
X0144250Y0015321D01*
X0144176Y0015271D01*
X0144100Y0015225D01*
X0144022Y0015182D01*
X0143942Y0015143D01*
X0143860Y0015107D01*
X0143777Y0015075D01*
X0143693Y0015047D01*
X0143607Y0015022D01*
X0143520Y0015002D01*
X0143433Y0014985D01*
X0143344Y0014972D01*
X0143256Y0014963D01*
X0143167Y0014958D01*
X0143078Y0014957D01*
X0142989Y0014960D01*
X0142900Y0014967D01*
X0142811Y0014978D01*
X0142723Y0014993D01*
X0142636Y0015011D01*
X0142550Y0015034D01*
X0142465Y0015060D01*
X0142381Y0015091D01*
X0142299Y0015125D01*
X0142218Y0015162D01*
X0142139Y0015203D01*
X0142062Y0015248D01*
X0141987Y0015296D01*
X0141914Y0015347D01*
X0141843Y0015401D01*
X0141775Y0015459D01*
X0141710Y0015519D01*
X0141647Y0015583D01*
X0141587Y0015649D01*
X0141530Y0015718D01*
X0141477Y0015789D01*
X0141426Y0015862D01*
X0141379Y0015938D01*
X0141336Y0016015D01*
X0141295Y0016095D01*
X0141259Y0016176D01*
X0141226Y0016259D01*
X0141197Y0016343D01*
X0141171Y0016429D01*
X0141149Y0016515D01*
X0141132Y0016602D01*
X0141118Y0016690D01*
X0141108Y0016779D01*
X0141102Y0016868D01*
X0141100Y0016957D01*
X0163898Y0013457D02*
X0163898Y0007158D01*
X0163898Y0020457D02*
X0163898Y0033158D01*
X0163898Y0040158D02*
X0163898Y0046457D01*
X0163898Y0047158D02*
X0163898Y0053457D01*
X0163898Y0060457D02*
X0163898Y0073158D01*
X0163898Y0080158D02*
X0163898Y0086457D01*
X0163898Y0087158D02*
X0163898Y0093457D01*
X0163898Y0100457D02*
X0163898Y0113158D01*
X0163898Y0120158D02*
X0163898Y0126457D01*
X0141100Y0096957D02*
X0141102Y0097046D01*
X0141108Y0097135D01*
X0141118Y0097224D01*
X0141132Y0097312D01*
X0141149Y0097399D01*
X0141171Y0097485D01*
X0141197Y0097571D01*
X0141226Y0097655D01*
X0141259Y0097738D01*
X0141295Y0097819D01*
X0141336Y0097899D01*
X0141379Y0097976D01*
X0141426Y0098052D01*
X0141477Y0098125D01*
X0141530Y0098196D01*
X0141587Y0098265D01*
X0141647Y0098331D01*
X0141710Y0098395D01*
X0141775Y0098455D01*
X0141843Y0098513D01*
X0141914Y0098567D01*
X0141987Y0098618D01*
X0142062Y0098666D01*
X0142139Y0098711D01*
X0142218Y0098752D01*
X0142299Y0098789D01*
X0142381Y0098823D01*
X0142465Y0098854D01*
X0142550Y0098880D01*
X0142636Y0098903D01*
X0142723Y0098921D01*
X0142811Y0098936D01*
X0142900Y0098947D01*
X0142989Y0098954D01*
X0143078Y0098957D01*
X0143167Y0098956D01*
X0143256Y0098951D01*
X0143344Y0098942D01*
X0143433Y0098929D01*
X0143520Y0098912D01*
X0143607Y0098892D01*
X0143693Y0098867D01*
X0143777Y0098839D01*
X0143860Y0098807D01*
X0143942Y0098771D01*
X0144022Y0098732D01*
X0144100Y0098689D01*
X0144176Y0098643D01*
X0144250Y0098593D01*
X0144322Y0098540D01*
X0144391Y0098484D01*
X0144458Y0098425D01*
X0144522Y0098363D01*
X0144583Y0098299D01*
X0144642Y0098231D01*
X0144697Y0098161D01*
X0144749Y0098089D01*
X0144798Y0098014D01*
X0144843Y0097938D01*
X0144885Y0097859D01*
X0144923Y0097779D01*
X0144958Y0097697D01*
X0144989Y0097613D01*
X0145017Y0097528D01*
X0145040Y0097442D01*
X0145060Y0097355D01*
X0145076Y0097268D01*
X0145088Y0097179D01*
X0145096Y0097091D01*
X0145100Y0097002D01*
X0145100Y0096912D01*
X0145096Y0096823D01*
X0145088Y0096735D01*
X0145076Y0096646D01*
X0145060Y0096559D01*
X0145040Y0096472D01*
X0145017Y0096386D01*
X0144989Y0096301D01*
X0144958Y0096217D01*
X0144923Y0096135D01*
X0144885Y0096055D01*
X0144843Y0095976D01*
X0144798Y0095900D01*
X0144749Y0095825D01*
X0144697Y0095753D01*
X0144642Y0095683D01*
X0144583Y0095615D01*
X0144522Y0095551D01*
X0144458Y0095489D01*
X0144391Y0095430D01*
X0144322Y0095374D01*
X0144250Y0095321D01*
X0144176Y0095271D01*
X0144100Y0095225D01*
X0144022Y0095182D01*
X0143942Y0095143D01*
X0143860Y0095107D01*
X0143777Y0095075D01*
X0143693Y0095047D01*
X0143607Y0095022D01*
X0143520Y0095002D01*
X0143433Y0094985D01*
X0143344Y0094972D01*
X0143256Y0094963D01*
X0143167Y0094958D01*
X0143078Y0094957D01*
X0142989Y0094960D01*
X0142900Y0094967D01*
X0142811Y0094978D01*
X0142723Y0094993D01*
X0142636Y0095011D01*
X0142550Y0095034D01*
X0142465Y0095060D01*
X0142381Y0095091D01*
X0142299Y0095125D01*
X0142218Y0095162D01*
X0142139Y0095203D01*
X0142062Y0095248D01*
X0141987Y0095296D01*
X0141914Y0095347D01*
X0141843Y0095401D01*
X0141775Y0095459D01*
X0141710Y0095519D01*
X0141647Y0095583D01*
X0141587Y0095649D01*
X0141530Y0095718D01*
X0141477Y0095789D01*
X0141426Y0095862D01*
X0141379Y0095938D01*
X0141336Y0096015D01*
X0141295Y0096095D01*
X0141259Y0096176D01*
X0141226Y0096259D01*
X0141197Y0096343D01*
X0141171Y0096429D01*
X0141149Y0096515D01*
X0141132Y0096602D01*
X0141118Y0096690D01*
X0141108Y0096779D01*
X0141102Y0096868D01*
X0141100Y0096957D01*
X0141100Y0076657D02*
X0141102Y0076746D01*
X0141108Y0076835D01*
X0141118Y0076924D01*
X0141132Y0077012D01*
X0141149Y0077099D01*
X0141171Y0077185D01*
X0141197Y0077271D01*
X0141226Y0077355D01*
X0141259Y0077438D01*
X0141295Y0077519D01*
X0141336Y0077599D01*
X0141379Y0077676D01*
X0141426Y0077752D01*
X0141477Y0077825D01*
X0141530Y0077896D01*
X0141587Y0077965D01*
X0141647Y0078031D01*
X0141710Y0078095D01*
X0141775Y0078155D01*
X0141843Y0078213D01*
X0141914Y0078267D01*
X0141987Y0078318D01*
X0142062Y0078366D01*
X0142139Y0078411D01*
X0142218Y0078452D01*
X0142299Y0078489D01*
X0142381Y0078523D01*
X0142465Y0078554D01*
X0142550Y0078580D01*
X0142636Y0078603D01*
X0142723Y0078621D01*
X0142811Y0078636D01*
X0142900Y0078647D01*
X0142989Y0078654D01*
X0143078Y0078657D01*
X0143167Y0078656D01*
X0143256Y0078651D01*
X0143344Y0078642D01*
X0143433Y0078629D01*
X0143520Y0078612D01*
X0143607Y0078592D01*
X0143693Y0078567D01*
X0143777Y0078539D01*
X0143860Y0078507D01*
X0143942Y0078471D01*
X0144022Y0078432D01*
X0144100Y0078389D01*
X0144176Y0078343D01*
X0144250Y0078293D01*
X0144322Y0078240D01*
X0144391Y0078184D01*
X0144458Y0078125D01*
X0144522Y0078063D01*
X0144583Y0077999D01*
X0144642Y0077931D01*
X0144697Y0077861D01*
X0144749Y0077789D01*
X0144798Y0077714D01*
X0144843Y0077638D01*
X0144885Y0077559D01*
X0144923Y0077479D01*
X0144958Y0077397D01*
X0144989Y0077313D01*
X0145017Y0077228D01*
X0145040Y0077142D01*
X0145060Y0077055D01*
X0145076Y0076968D01*
X0145088Y0076879D01*
X0145096Y0076791D01*
X0145100Y0076702D01*
X0145100Y0076612D01*
X0145096Y0076523D01*
X0145088Y0076435D01*
X0145076Y0076346D01*
X0145060Y0076259D01*
X0145040Y0076172D01*
X0145017Y0076086D01*
X0144989Y0076001D01*
X0144958Y0075917D01*
X0144923Y0075835D01*
X0144885Y0075755D01*
X0144843Y0075676D01*
X0144798Y0075600D01*
X0144749Y0075525D01*
X0144697Y0075453D01*
X0144642Y0075383D01*
X0144583Y0075315D01*
X0144522Y0075251D01*
X0144458Y0075189D01*
X0144391Y0075130D01*
X0144322Y0075074D01*
X0144250Y0075021D01*
X0144176Y0074971D01*
X0144100Y0074925D01*
X0144022Y0074882D01*
X0143942Y0074843D01*
X0143860Y0074807D01*
X0143777Y0074775D01*
X0143693Y0074747D01*
X0143607Y0074722D01*
X0143520Y0074702D01*
X0143433Y0074685D01*
X0143344Y0074672D01*
X0143256Y0074663D01*
X0143167Y0074658D01*
X0143078Y0074657D01*
X0142989Y0074660D01*
X0142900Y0074667D01*
X0142811Y0074678D01*
X0142723Y0074693D01*
X0142636Y0074711D01*
X0142550Y0074734D01*
X0142465Y0074760D01*
X0142381Y0074791D01*
X0142299Y0074825D01*
X0142218Y0074862D01*
X0142139Y0074903D01*
X0142062Y0074948D01*
X0141987Y0074996D01*
X0141914Y0075047D01*
X0141843Y0075101D01*
X0141775Y0075159D01*
X0141710Y0075219D01*
X0141647Y0075283D01*
X0141587Y0075349D01*
X0141530Y0075418D01*
X0141477Y0075489D01*
X0141426Y0075562D01*
X0141379Y0075638D01*
X0141336Y0075715D01*
X0141295Y0075795D01*
X0141259Y0075876D01*
X0141226Y0075959D01*
X0141197Y0076043D01*
X0141171Y0076129D01*
X0141149Y0076215D01*
X0141132Y0076302D01*
X0141118Y0076390D01*
X0141108Y0076479D01*
X0141102Y0076568D01*
X0141100Y0076657D01*
X0141100Y0056957D02*
X0141102Y0057046D01*
X0141108Y0057135D01*
X0141118Y0057224D01*
X0141132Y0057312D01*
X0141149Y0057399D01*
X0141171Y0057485D01*
X0141197Y0057571D01*
X0141226Y0057655D01*
X0141259Y0057738D01*
X0141295Y0057819D01*
X0141336Y0057899D01*
X0141379Y0057976D01*
X0141426Y0058052D01*
X0141477Y0058125D01*
X0141530Y0058196D01*
X0141587Y0058265D01*
X0141647Y0058331D01*
X0141710Y0058395D01*
X0141775Y0058455D01*
X0141843Y0058513D01*
X0141914Y0058567D01*
X0141987Y0058618D01*
X0142062Y0058666D01*
X0142139Y0058711D01*
X0142218Y0058752D01*
X0142299Y0058789D01*
X0142381Y0058823D01*
X0142465Y0058854D01*
X0142550Y0058880D01*
X0142636Y0058903D01*
X0142723Y0058921D01*
X0142811Y0058936D01*
X0142900Y0058947D01*
X0142989Y0058954D01*
X0143078Y0058957D01*
X0143167Y0058956D01*
X0143256Y0058951D01*
X0143344Y0058942D01*
X0143433Y0058929D01*
X0143520Y0058912D01*
X0143607Y0058892D01*
X0143693Y0058867D01*
X0143777Y0058839D01*
X0143860Y0058807D01*
X0143942Y0058771D01*
X0144022Y0058732D01*
X0144100Y0058689D01*
X0144176Y0058643D01*
X0144250Y0058593D01*
X0144322Y0058540D01*
X0144391Y0058484D01*
X0144458Y0058425D01*
X0144522Y0058363D01*
X0144583Y0058299D01*
X0144642Y0058231D01*
X0144697Y0058161D01*
X0144749Y0058089D01*
X0144798Y0058014D01*
X0144843Y0057938D01*
X0144885Y0057859D01*
X0144923Y0057779D01*
X0144958Y0057697D01*
X0144989Y0057613D01*
X0145017Y0057528D01*
X0145040Y0057442D01*
X0145060Y0057355D01*
X0145076Y0057268D01*
X0145088Y0057179D01*
X0145096Y0057091D01*
X0145100Y0057002D01*
X0145100Y0056912D01*
X0145096Y0056823D01*
X0145088Y0056735D01*
X0145076Y0056646D01*
X0145060Y0056559D01*
X0145040Y0056472D01*
X0145017Y0056386D01*
X0144989Y0056301D01*
X0144958Y0056217D01*
X0144923Y0056135D01*
X0144885Y0056055D01*
X0144843Y0055976D01*
X0144798Y0055900D01*
X0144749Y0055825D01*
X0144697Y0055753D01*
X0144642Y0055683D01*
X0144583Y0055615D01*
X0144522Y0055551D01*
X0144458Y0055489D01*
X0144391Y0055430D01*
X0144322Y0055374D01*
X0144250Y0055321D01*
X0144176Y0055271D01*
X0144100Y0055225D01*
X0144022Y0055182D01*
X0143942Y0055143D01*
X0143860Y0055107D01*
X0143777Y0055075D01*
X0143693Y0055047D01*
X0143607Y0055022D01*
X0143520Y0055002D01*
X0143433Y0054985D01*
X0143344Y0054972D01*
X0143256Y0054963D01*
X0143167Y0054958D01*
X0143078Y0054957D01*
X0142989Y0054960D01*
X0142900Y0054967D01*
X0142811Y0054978D01*
X0142723Y0054993D01*
X0142636Y0055011D01*
X0142550Y0055034D01*
X0142465Y0055060D01*
X0142381Y0055091D01*
X0142299Y0055125D01*
X0142218Y0055162D01*
X0142139Y0055203D01*
X0142062Y0055248D01*
X0141987Y0055296D01*
X0141914Y0055347D01*
X0141843Y0055401D01*
X0141775Y0055459D01*
X0141710Y0055519D01*
X0141647Y0055583D01*
X0141587Y0055649D01*
X0141530Y0055718D01*
X0141477Y0055789D01*
X0141426Y0055862D01*
X0141379Y0055938D01*
X0141336Y0056015D01*
X0141295Y0056095D01*
X0141259Y0056176D01*
X0141226Y0056259D01*
X0141197Y0056343D01*
X0141171Y0056429D01*
X0141149Y0056515D01*
X0141132Y0056602D01*
X0141118Y0056690D01*
X0141108Y0056779D01*
X0141102Y0056868D01*
X0141100Y0056957D01*
X0141100Y0036657D02*
X0141102Y0036746D01*
X0141108Y0036835D01*
X0141118Y0036924D01*
X0141132Y0037012D01*
X0141149Y0037099D01*
X0141171Y0037185D01*
X0141197Y0037271D01*
X0141226Y0037355D01*
X0141259Y0037438D01*
X0141295Y0037519D01*
X0141336Y0037599D01*
X0141379Y0037676D01*
X0141426Y0037752D01*
X0141477Y0037825D01*
X0141530Y0037896D01*
X0141587Y0037965D01*
X0141647Y0038031D01*
X0141710Y0038095D01*
X0141775Y0038155D01*
X0141843Y0038213D01*
X0141914Y0038267D01*
X0141987Y0038318D01*
X0142062Y0038366D01*
X0142139Y0038411D01*
X0142218Y0038452D01*
X0142299Y0038489D01*
X0142381Y0038523D01*
X0142465Y0038554D01*
X0142550Y0038580D01*
X0142636Y0038603D01*
X0142723Y0038621D01*
X0142811Y0038636D01*
X0142900Y0038647D01*
X0142989Y0038654D01*
X0143078Y0038657D01*
X0143167Y0038656D01*
X0143256Y0038651D01*
X0143344Y0038642D01*
X0143433Y0038629D01*
X0143520Y0038612D01*
X0143607Y0038592D01*
X0143693Y0038567D01*
X0143777Y0038539D01*
X0143860Y0038507D01*
X0143942Y0038471D01*
X0144022Y0038432D01*
X0144100Y0038389D01*
X0144176Y0038343D01*
X0144250Y0038293D01*
X0144322Y0038240D01*
X0144391Y0038184D01*
X0144458Y0038125D01*
X0144522Y0038063D01*
X0144583Y0037999D01*
X0144642Y0037931D01*
X0144697Y0037861D01*
X0144749Y0037789D01*
X0144798Y0037714D01*
X0144843Y0037638D01*
X0144885Y0037559D01*
X0144923Y0037479D01*
X0144958Y0037397D01*
X0144989Y0037313D01*
X0145017Y0037228D01*
X0145040Y0037142D01*
X0145060Y0037055D01*
X0145076Y0036968D01*
X0145088Y0036879D01*
X0145096Y0036791D01*
X0145100Y0036702D01*
X0145100Y0036612D01*
X0145096Y0036523D01*
X0145088Y0036435D01*
X0145076Y0036346D01*
X0145060Y0036259D01*
X0145040Y0036172D01*
X0145017Y0036086D01*
X0144989Y0036001D01*
X0144958Y0035917D01*
X0144923Y0035835D01*
X0144885Y0035755D01*
X0144843Y0035676D01*
X0144798Y0035600D01*
X0144749Y0035525D01*
X0144697Y0035453D01*
X0144642Y0035383D01*
X0144583Y0035315D01*
X0144522Y0035251D01*
X0144458Y0035189D01*
X0144391Y0035130D01*
X0144322Y0035074D01*
X0144250Y0035021D01*
X0144176Y0034971D01*
X0144100Y0034925D01*
X0144022Y0034882D01*
X0143942Y0034843D01*
X0143860Y0034807D01*
X0143777Y0034775D01*
X0143693Y0034747D01*
X0143607Y0034722D01*
X0143520Y0034702D01*
X0143433Y0034685D01*
X0143344Y0034672D01*
X0143256Y0034663D01*
X0143167Y0034658D01*
X0143078Y0034657D01*
X0142989Y0034660D01*
X0142900Y0034667D01*
X0142811Y0034678D01*
X0142723Y0034693D01*
X0142636Y0034711D01*
X0142550Y0034734D01*
X0142465Y0034760D01*
X0142381Y0034791D01*
X0142299Y0034825D01*
X0142218Y0034862D01*
X0142139Y0034903D01*
X0142062Y0034948D01*
X0141987Y0034996D01*
X0141914Y0035047D01*
X0141843Y0035101D01*
X0141775Y0035159D01*
X0141710Y0035219D01*
X0141647Y0035283D01*
X0141587Y0035349D01*
X0141530Y0035418D01*
X0141477Y0035489D01*
X0141426Y0035562D01*
X0141379Y0035638D01*
X0141336Y0035715D01*
X0141295Y0035795D01*
X0141259Y0035876D01*
X0141226Y0035959D01*
X0141197Y0036043D01*
X0141171Y0036129D01*
X0141149Y0036215D01*
X0141132Y0036302D01*
X0141118Y0036390D01*
X0141108Y0036479D01*
X0141102Y0036568D01*
X0141100Y0036657D01*
D12*
X0145297Y0031710D02*
X0144546Y0030959D01*
X0144546Y0029458D01*
X0145297Y0028707D01*
X0145297Y0031710D02*
X0146047Y0031710D01*
X0149050Y0028707D01*
X0149050Y0031710D01*
X0166746Y0023367D02*
X0166746Y0021115D01*
X0171250Y0021115D01*
X0171250Y0023367D01*
X0170499Y0024118D01*
X0167497Y0024118D01*
X0166746Y0023367D01*
X0166746Y0019514D02*
X0171250Y0019514D01*
X0166746Y0016511D01*
X0171250Y0016511D01*
X0170499Y0014910D02*
X0168998Y0014910D01*
X0168998Y0013409D01*
X0167497Y0014910D02*
X0166746Y0014159D01*
X0166746Y0012658D01*
X0167497Y0011907D01*
X0170499Y0011907D01*
X0171250Y0012658D01*
X0171250Y0014159D01*
X0170499Y0014910D01*
X0149050Y0012210D02*
X0149050Y0009207D01*
X0149050Y0010709D02*
X0144546Y0010709D01*
X0146047Y0009207D01*
X0146047Y0049207D02*
X0144546Y0050709D01*
X0149050Y0050709D01*
X0149050Y0052210D02*
X0149050Y0049207D01*
X0166746Y0051907D02*
X0166746Y0054159D01*
X0167497Y0054910D01*
X0168998Y0054910D01*
X0169749Y0054159D01*
X0169749Y0051907D01*
X0171250Y0051907D02*
X0166746Y0051907D01*
X0167497Y0056511D02*
X0168247Y0056511D01*
X0168998Y0057262D01*
X0168998Y0058763D01*
X0169749Y0059514D01*
X0170499Y0059514D01*
X0171250Y0058763D01*
X0171250Y0057262D01*
X0170499Y0056511D01*
X0167497Y0056511D02*
X0166746Y0057262D01*
X0166746Y0058763D01*
X0167497Y0059514D01*
X0167497Y0061115D02*
X0170499Y0061115D01*
X0171250Y0061866D01*
X0171250Y0063367D01*
X0170499Y0064118D01*
X0167497Y0064118D01*
X0166746Y0063367D01*
X0166746Y0061866D01*
X0167497Y0061115D01*
X0166746Y0065719D02*
X0171250Y0068722D01*
X0166746Y0068722D01*
X0166746Y0065719D02*
X0171250Y0065719D01*
X0149050Y0068707D02*
X0146047Y0071710D01*
X0145297Y0071710D01*
X0144546Y0070959D01*
X0144546Y0069458D01*
X0145297Y0068707D01*
X0149050Y0068707D02*
X0149050Y0071710D01*
X0149050Y0089207D02*
X0149050Y0092210D01*
X0149050Y0090709D02*
X0144546Y0090709D01*
X0146047Y0089207D01*
X0133550Y0093593D02*
X0132799Y0092842D01*
X0129797Y0092842D01*
X0129046Y0093593D01*
X0129046Y0095094D01*
X0129797Y0095845D01*
X0130547Y0097446D02*
X0129046Y0098947D01*
X0133550Y0098947D01*
X0133550Y0097446D02*
X0133550Y0100449D01*
X0132799Y0095845D02*
X0133550Y0095094D01*
X0133550Y0093593D01*
X0145297Y0108707D02*
X0144546Y0109458D01*
X0144546Y0110959D01*
X0145297Y0111710D01*
X0146047Y0111710D01*
X0149050Y0108707D01*
X0149050Y0111710D01*
X0166746Y0108722D02*
X0166746Y0105719D01*
X0168998Y0105719D01*
X0168247Y0107221D01*
X0168247Y0107971D01*
X0168998Y0108722D01*
X0170499Y0108722D01*
X0171250Y0107971D01*
X0171250Y0106470D01*
X0170499Y0105719D01*
X0170499Y0104118D02*
X0171250Y0103367D01*
X0171250Y0101115D01*
X0166746Y0101115D01*
X0166746Y0103367D01*
X0167497Y0104118D01*
X0168247Y0104118D01*
X0168998Y0103367D01*
X0168998Y0101115D01*
X0169749Y0099514D02*
X0170499Y0099514D01*
X0171250Y0098763D01*
X0171250Y0097262D01*
X0170499Y0096511D01*
X0168998Y0097262D02*
X0168998Y0098763D01*
X0169749Y0099514D01*
X0167497Y0099514D02*
X0166746Y0098763D01*
X0166746Y0097262D01*
X0167497Y0096511D01*
X0168247Y0096511D01*
X0168998Y0097262D01*
X0169749Y0094910D02*
X0166746Y0094910D01*
X0166746Y0091907D02*
X0169749Y0091907D01*
X0171250Y0093409D01*
X0169749Y0094910D01*
X0168998Y0103367D02*
X0169749Y0104118D01*
X0170499Y0104118D01*
X0108550Y0100449D02*
X0108550Y0097446D01*
X0105547Y0100449D01*
X0104797Y0100449D01*
X0104046Y0099698D01*
X0104046Y0098197D01*
X0104797Y0097446D01*
X0104797Y0095845D02*
X0104046Y0095094D01*
X0104046Y0093593D01*
X0104797Y0092842D01*
X0107799Y0092842D01*
X0108550Y0093593D01*
X0108550Y0095094D01*
X0107799Y0095845D01*
X0097656Y0123050D02*
X0094654Y0123050D01*
X0096155Y0123050D02*
X0096155Y0127554D01*
X0094654Y0126053D01*
X0093053Y0126803D02*
X0093053Y0125302D01*
X0092302Y0124551D01*
X0090050Y0124551D01*
X0090050Y0123050D02*
X0090050Y0127554D01*
X0092302Y0127554D01*
X0093053Y0126803D01*
X0091551Y0124551D02*
X0093053Y0123050D01*
X0032772Y0098754D02*
X0032772Y0094250D01*
X0029770Y0098754D01*
X0029770Y0094250D01*
X0026667Y0094250D02*
X0026667Y0098754D01*
X0025166Y0098754D02*
X0028168Y0098754D01*
X0023564Y0098003D02*
X0023564Y0097253D01*
X0022814Y0096502D01*
X0020562Y0096502D01*
X0018960Y0096502D02*
X0018210Y0095751D01*
X0015958Y0095751D01*
X0015958Y0094250D02*
X0015958Y0098754D01*
X0018210Y0098754D01*
X0018960Y0098003D01*
X0018960Y0096502D01*
X0017459Y0095751D02*
X0018960Y0094250D01*
X0020562Y0094250D02*
X0022814Y0094250D01*
X0023564Y0095001D01*
X0023564Y0095751D01*
X0022814Y0096502D01*
X0023564Y0098003D02*
X0022814Y0098754D01*
X0020562Y0098754D01*
X0020562Y0094250D01*
X0014356Y0094250D02*
X0014356Y0098754D01*
X0011354Y0098754D02*
X0011354Y0094250D01*
X0012855Y0095751D01*
X0014356Y0094250D01*
X0009753Y0096502D02*
X0009753Y0098003D01*
X0009002Y0098754D01*
X0006750Y0098754D01*
X0006750Y0094250D01*
X0006750Y0095751D02*
X0009002Y0095751D01*
X0009753Y0096502D01*
X0008251Y0114250D02*
X0008251Y0118754D01*
X0006750Y0118754D02*
X0009753Y0118754D01*
X0011354Y0118754D02*
X0011354Y0115001D01*
X0012105Y0114250D01*
X0013606Y0114250D01*
X0014356Y0115001D01*
X0014356Y0118754D01*
X0015958Y0118754D02*
X0018210Y0118754D01*
X0018960Y0118003D01*
X0018960Y0116502D01*
X0018210Y0115751D01*
X0015958Y0115751D01*
X0015958Y0114250D02*
X0015958Y0118754D01*
X0017459Y0115751D02*
X0018960Y0114250D01*
X0020562Y0114250D02*
X0022814Y0114250D01*
X0023564Y0115001D01*
X0023564Y0115751D01*
X0022814Y0116502D01*
X0020562Y0116502D01*
X0022814Y0116502D02*
X0023564Y0117253D01*
X0023564Y0118003D01*
X0022814Y0118754D01*
X0020562Y0118754D01*
X0020562Y0114250D01*
X0025166Y0115001D02*
X0025166Y0118003D01*
X0025916Y0118754D01*
X0027418Y0118754D01*
X0028168Y0118003D01*
X0028168Y0115001D01*
X0027418Y0114250D01*
X0025916Y0114250D01*
X0025166Y0115001D01*
X0025166Y0068754D02*
X0025166Y0064250D01*
X0028168Y0064250D01*
X0029770Y0064250D02*
X0029770Y0068754D01*
X0028168Y0068754D02*
X0025166Y0068754D01*
X0023564Y0068003D02*
X0023564Y0067253D01*
X0022814Y0066502D01*
X0020562Y0066502D01*
X0022814Y0066502D02*
X0023564Y0065751D01*
X0023564Y0065001D01*
X0022814Y0064250D01*
X0020562Y0064250D01*
X0020562Y0068754D01*
X0022814Y0068754D01*
X0023564Y0068003D01*
X0025166Y0066502D02*
X0026667Y0066502D01*
X0029770Y0066502D02*
X0032772Y0066502D01*
X0034374Y0066502D02*
X0037376Y0066502D01*
X0037376Y0067253D02*
X0037376Y0064250D01*
X0038977Y0065751D02*
X0040479Y0064250D01*
X0041980Y0065751D01*
X0041980Y0068754D01*
X0038977Y0068754D02*
X0038977Y0065751D01*
X0037376Y0067253D02*
X0035875Y0068754D01*
X0034374Y0067253D01*
X0034374Y0064250D01*
X0032772Y0064250D02*
X0032772Y0068754D01*
X0018960Y0068754D02*
X0015958Y0064250D01*
X0012855Y0064250D02*
X0012855Y0068754D01*
X0011354Y0068754D02*
X0014356Y0068754D01*
X0015958Y0068754D02*
X0018960Y0064250D01*
X0009753Y0064250D02*
X0009753Y0067253D01*
X0008251Y0068754D01*
X0006750Y0067253D01*
X0006750Y0064250D01*
X0006750Y0066502D02*
X0009753Y0066502D01*
X0006750Y0048754D02*
X0006750Y0044250D01*
X0009753Y0044250D01*
X0011354Y0044250D02*
X0011354Y0047253D01*
X0012855Y0048754D01*
X0014356Y0047253D01*
X0014356Y0044250D01*
X0015958Y0045001D02*
X0016708Y0044250D01*
X0018210Y0044250D01*
X0018960Y0045001D01*
X0018960Y0045751D01*
X0018210Y0046502D01*
X0016708Y0046502D01*
X0015958Y0047253D01*
X0015958Y0048003D01*
X0016708Y0048754D01*
X0018210Y0048754D01*
X0018960Y0048003D01*
X0020562Y0048754D02*
X0023564Y0048754D01*
X0022063Y0048754D02*
X0022063Y0044250D01*
X0025166Y0045001D02*
X0025916Y0044250D01*
X0027418Y0044250D01*
X0028168Y0045001D01*
X0028168Y0045751D01*
X0027418Y0046502D01*
X0025916Y0046502D01*
X0025166Y0047253D01*
X0025166Y0048003D01*
X0025916Y0048754D01*
X0027418Y0048754D01*
X0028168Y0048003D01*
X0029770Y0048754D02*
X0032772Y0048754D01*
X0031271Y0048754D02*
X0031271Y0044250D01*
X0034374Y0044250D02*
X0034374Y0047253D01*
X0035875Y0048754D01*
X0037376Y0047253D01*
X0037376Y0044250D01*
X0037376Y0046502D02*
X0034374Y0046502D01*
X0038977Y0048754D02*
X0041980Y0048754D01*
X0040479Y0048754D02*
X0040479Y0044250D01*
X0043581Y0044250D02*
X0046584Y0044250D01*
X0045083Y0046502D02*
X0043581Y0046502D01*
X0043581Y0048754D02*
X0043581Y0044250D01*
X0043581Y0048754D02*
X0046584Y0048754D01*
X0062050Y0048303D02*
X0062801Y0049054D01*
X0064302Y0049054D01*
X0065053Y0048303D01*
X0065053Y0047553D01*
X0062050Y0044550D01*
X0065053Y0044550D01*
X0063551Y0039054D02*
X0063551Y0034550D01*
X0062050Y0034550D02*
X0065053Y0034550D01*
X0062050Y0037553D02*
X0063551Y0039054D01*
X0080550Y0028302D02*
X0080550Y0026801D01*
X0081301Y0026050D01*
X0082802Y0026050D01*
X0083553Y0026801D01*
X0083553Y0027551D01*
X0082802Y0028302D01*
X0080550Y0028302D01*
X0082051Y0029803D01*
X0083553Y0030554D01*
X0014356Y0046502D02*
X0011354Y0046502D01*
D13*
X0093300Y0084800D02*
X0096800Y0084800D01*
X0100300Y0084800D01*
X0100300Y0088800D02*
X0096800Y0088800D01*
X0093300Y0088800D01*
X0118300Y0088800D02*
X0121800Y0088800D01*
X0125300Y0088800D01*
X0125300Y0084800D02*
X0121800Y0084800D01*
X0118300Y0084800D01*
D14*
X0116000Y0116800D03*
X0087600Y0116800D03*
D15*
X0107800Y0055300D02*
X0055800Y0055300D01*
X0055800Y0028300D01*
X0073800Y0028300D01*
X0089800Y0028300D02*
X0107800Y0028300D01*
X0107800Y0055300D01*
D16*
X0069245Y0062150D02*
X0065041Y0062150D01*
X0069245Y0066354D01*
X0069245Y0067404D01*
X0068194Y0068455D01*
X0066092Y0068455D01*
X0065041Y0067404D01*
X0062799Y0068455D02*
X0062799Y0064252D01*
X0060697Y0062150D01*
X0058595Y0064252D01*
X0058595Y0068455D01*
X0056354Y0067404D02*
X0055303Y0068455D01*
X0053201Y0068455D01*
X0052150Y0067404D01*
X0052150Y0066354D01*
X0053201Y0065303D01*
X0055303Y0065303D01*
X0056354Y0064252D01*
X0056354Y0063201D01*
X0055303Y0062150D01*
X0053201Y0062150D01*
X0052150Y0063201D01*
D17*
X0042786Y0122134D02*
X0039650Y0125270D01*
X0039650Y0123702D02*
X0042786Y0123702D01*
X0042786Y0125270D02*
X0039650Y0122134D01*
X0041218Y0122134D02*
X0041218Y0125270D01*
D18*
X0043438Y0078206D02*
X0043438Y0072034D01*
X0042203Y0070800D01*
X0039734Y0070800D01*
X0038500Y0072034D01*
X0038500Y0078206D01*
X0046050Y0075738D02*
X0048519Y0078206D01*
X0048519Y0070800D01*
X0046050Y0070800D02*
X0050988Y0070800D01*
M02*
