G75*
%MOIN*%
%OFA0B0*%
%FSLAX25Y25*%
%IPPOS*%
%LPD*%
%AMOC8*
5,1,8,0,0,1.08239X$1,22.5*
%
%ADD10C,0.00000*%
%ADD11C,0.06800*%
%ADD12OC8,0.08300*%
%ADD13C,0.07850*%
%ADD14OC8,0.06000*%
%ADD15OC8,0.06400*%
%ADD16OC8,0.06800*%
%ADD17R,0.07400X0.07400*%
%ADD18C,0.07400*%
D10*
X0001800Y0001800D02*
X0001800Y0130501D01*
X0176721Y0130501D01*
X0176721Y0001800D01*
X0001800Y0001800D01*
D11*
X0011800Y0033800D02*
X0011800Y0039800D01*
X0021800Y0039800D02*
X0021800Y0033800D01*
X0021800Y0053800D02*
X0021800Y0059800D01*
X0011800Y0059800D02*
X0011800Y0053800D01*
X0011800Y0083800D02*
X0011800Y0089800D01*
X0021800Y0089800D02*
X0021800Y0083800D01*
D12*
X0096800Y0071800D03*
X0121800Y0071800D03*
X0121800Y0101800D03*
X0096800Y0101800D03*
D13*
X0153275Y0096957D02*
X0160325Y0096957D01*
X0160325Y0116643D02*
X0153275Y0116643D01*
X0153275Y0076643D02*
X0160325Y0076643D01*
X0160325Y0056957D02*
X0153275Y0056957D01*
X0153275Y0036643D02*
X0160325Y0036643D01*
X0160325Y0016957D02*
X0153275Y0016957D01*
D14*
X0121800Y0116800D03*
X0081800Y0116800D03*
D15*
X0081800Y0046800D03*
X0071800Y0046800D03*
X0071800Y0036800D03*
X0081800Y0036800D03*
X0091800Y0036800D03*
X0091800Y0046800D03*
D16*
X0011800Y0106800D03*
D17*
X0041800Y0116800D03*
D18*
X0041800Y0106800D03*
X0041800Y0096800D03*
X0041800Y0086800D03*
X0071800Y0086800D03*
X0071800Y0096800D03*
X0071800Y0106800D03*
X0071800Y0116800D03*
M02*
