%
M48
M72
T01C0.03200
T02C0.03600
T03C0.04000
T04C0.04400
T05C0.04700
%
T01
X81800Y116800
X121800Y116800
T02
X96800Y101800
X121800Y101800
X121800Y71800
X96800Y71800
X91800Y46800
X81800Y46800
X71800Y46800
X71800Y36800
X81800Y36800
X91800Y36800
T03
X11800Y36800
X21800Y36800
X21800Y56800
X11800Y56800
X11800Y86800
X21800Y86800
X11800Y106800
T04
X41800Y116800
X41800Y106800
X41800Y96800
X41800Y86800
X71800Y86800
X71800Y96800
X71800Y106800
X71800Y116800
T05
X156800Y116643
X156800Y96957
X156800Y76643
X156800Y56957
X156800Y36643
X156800Y16957
M30
