G75*
%MOIN*%
%OFA0B0*%
%FSLAX25Y25*%
%IPPOS*%
%LPD*%
%AMOC8*
5,1,8,0,0,1.08239X$1,22.5*
%
%ADD10C,0.00000*%
%ADD11C,0.00600*%
D10*
X0001800Y0001800D02*
X0001800Y0130501D01*
X0176721Y0130501D01*
X0176721Y0001800D01*
X0001800Y0001800D01*
D11*
X0008185Y0007100D02*
X0008185Y0010303D01*
X0009253Y0011370D01*
X0010321Y0010303D01*
X0010321Y0007100D01*
X0012456Y0007100D02*
X0012456Y0011370D01*
X0011388Y0011370D01*
X0010321Y0010303D01*
X0014624Y0011370D02*
X0015692Y0011370D01*
X0017827Y0009235D01*
X0017827Y0007100D02*
X0017827Y0011370D01*
X0020002Y0011370D02*
X0020002Y0006032D01*
X0021070Y0004965D01*
X0022137Y0004965D01*
X0023205Y0007100D02*
X0020002Y0007100D01*
X0023205Y0007100D02*
X0024273Y0008168D01*
X0024273Y0011370D01*
X0026448Y0011370D02*
X0026448Y0008168D01*
X0027515Y0007100D01*
X0028583Y0008168D01*
X0029650Y0007100D01*
X0030718Y0008168D01*
X0030718Y0011370D01*
X0032893Y0010303D02*
X0032893Y0007100D01*
X0036096Y0007100D01*
X0037164Y0008168D01*
X0036096Y0009235D01*
X0032893Y0009235D01*
X0032893Y0010303D02*
X0033961Y0011370D01*
X0036096Y0011370D01*
X0039339Y0010303D02*
X0039339Y0007100D01*
X0039339Y0010303D02*
X0040406Y0011370D01*
X0043609Y0011370D01*
X0043609Y0007100D01*
X0045784Y0007100D02*
X0048987Y0007100D01*
X0050055Y0008168D01*
X0048987Y0009235D01*
X0045784Y0009235D01*
X0045784Y0010303D02*
X0045784Y0007100D01*
X0045784Y0010303D02*
X0046852Y0011370D01*
X0048987Y0011370D01*
X0052230Y0013505D02*
X0052230Y0007100D01*
X0056500Y0007100D02*
X0056500Y0013505D01*
X0054365Y0011370D01*
X0052230Y0013505D01*
X0051852Y0017100D02*
X0050784Y0018168D01*
X0050784Y0019235D01*
X0051852Y0020303D01*
X0052919Y0020303D01*
X0051852Y0020303D02*
X0050784Y0021370D01*
X0050784Y0022438D01*
X0051852Y0023505D01*
X0053987Y0023505D01*
X0055055Y0022438D01*
X0055055Y0018168D02*
X0053987Y0017100D01*
X0051852Y0017100D01*
X0048609Y0017100D02*
X0047541Y0017100D01*
X0047541Y0018168D01*
X0048609Y0018168D01*
X0048609Y0017100D01*
X0045386Y0018168D02*
X0041116Y0022438D01*
X0041116Y0018168D01*
X0042184Y0017100D01*
X0044319Y0017100D01*
X0045386Y0018168D01*
X0045386Y0022438D01*
X0044319Y0023505D01*
X0042184Y0023505D01*
X0041116Y0022438D01*
X0038941Y0022438D02*
X0038941Y0021370D01*
X0037873Y0020303D01*
X0035738Y0020303D01*
X0034670Y0019235D01*
X0034670Y0018168D01*
X0035738Y0017100D01*
X0037873Y0017100D01*
X0038941Y0018168D01*
X0038941Y0019235D01*
X0037873Y0020303D01*
X0035738Y0020303D02*
X0034670Y0021370D01*
X0034670Y0022438D01*
X0035738Y0023505D01*
X0037873Y0023505D01*
X0038941Y0022438D01*
X0032495Y0018168D02*
X0031428Y0018168D01*
X0031428Y0017100D01*
X0032495Y0017100D01*
X0032495Y0018168D01*
X0029273Y0017100D02*
X0025002Y0021370D01*
X0025002Y0022438D01*
X0026070Y0023505D01*
X0028205Y0023505D01*
X0029273Y0022438D01*
X0029273Y0017100D02*
X0025002Y0017100D01*
X0022827Y0018168D02*
X0018557Y0022438D01*
X0018557Y0018168D01*
X0019624Y0017100D01*
X0021759Y0017100D01*
X0022827Y0018168D01*
X0022827Y0022438D01*
X0021759Y0023505D01*
X0019624Y0023505D01*
X0018557Y0022438D01*
X0016382Y0021370D02*
X0014246Y0023505D01*
X0014246Y0017100D01*
X0012111Y0017100D02*
X0016382Y0017100D01*
X0009936Y0018168D02*
X0008868Y0017100D01*
X0006733Y0017100D01*
X0005666Y0018168D01*
X0005666Y0020303D01*
X0006733Y0021370D01*
X0007801Y0021370D01*
X0009936Y0020303D01*
X0009936Y0023505D01*
X0005666Y0023505D01*
X0057230Y0017100D02*
X0061500Y0017100D01*
X0059365Y0017100D02*
X0059365Y0023505D01*
X0061500Y0021370D01*
X0071037Y0013505D02*
X0071037Y0007100D01*
X0074240Y0007100D01*
X0075307Y0008168D01*
X0075307Y0010303D01*
X0074240Y0011370D01*
X0071037Y0011370D01*
X0068862Y0010303D02*
X0067794Y0011370D01*
X0065659Y0011370D01*
X0064591Y0010303D01*
X0064591Y0009235D01*
X0068862Y0009235D01*
X0068862Y0008168D02*
X0067794Y0007100D01*
X0065659Y0007100D01*
X0068862Y0008168D02*
X0068862Y0010303D01*
X0077462Y0008168D02*
X0077462Y0007100D01*
X0078530Y0007100D01*
X0078530Y0008168D01*
X0077462Y0008168D01*
X0080705Y0009235D02*
X0080705Y0010303D01*
X0081773Y0011370D01*
X0083908Y0011370D01*
X0084976Y0010303D01*
X0084976Y0008168D01*
X0083908Y0007100D01*
X0081773Y0007100D01*
X0080705Y0009235D02*
X0084976Y0009235D01*
X0087151Y0007100D02*
X0090353Y0007100D01*
X0091421Y0008168D01*
X0091421Y0010303D01*
X0090353Y0011370D01*
X0087151Y0011370D01*
X0093596Y0010303D02*
X0093596Y0007100D01*
X0096799Y0007100D01*
X0097867Y0008168D01*
X0096799Y0009235D01*
X0093596Y0009235D01*
X0093596Y0010303D02*
X0094664Y0011370D01*
X0096799Y0011370D01*
X0100042Y0010303D02*
X0100042Y0008168D01*
X0101109Y0007100D01*
X0104312Y0007100D01*
X0106487Y0008168D02*
X0107555Y0009235D01*
X0109690Y0009235D01*
X0110758Y0010303D01*
X0109690Y0011370D01*
X0106487Y0011370D01*
X0104312Y0011370D02*
X0101109Y0011370D01*
X0100042Y0010303D01*
X0104312Y0011370D02*
X0104312Y0004965D01*
X0106487Y0008168D02*
X0107555Y0007100D01*
X0110758Y0007100D01*
X0112933Y0008168D02*
X0112933Y0010303D01*
X0114000Y0011370D01*
X0117203Y0011370D01*
X0117203Y0013505D02*
X0117203Y0007100D01*
X0114000Y0007100D01*
X0112933Y0008168D01*
X0119365Y0007100D02*
X0120432Y0008168D01*
X0120432Y0012438D01*
X0119365Y0011370D02*
X0121500Y0011370D01*
M02*
